# xmcd CD database file
#
# Track frame offsets:
#	180
#	13308
#	24978
#	37316
#	51321
#	67893
#	80682
#	96968
#	111142
#	125849
#	139233
#	153227
#
# Disc length: 2994 seconds
#
# Revision: 0
# Processed by: cddbd v1.5.2PL0 Copyright (c) Steve Scherf et al.
# Submitted via: CDex 1.70beta2
#
DISCID=a90bb00c
DTITLE=Charlie Parker - Great Master [CD4 of 10)
DYEAR=1900
DGENRE=Jazz
TTITLE0=Ah - Leu - Cha (1948)
TTITLE1=Bird Gets The Worm (1947)
TTITLE2=Carvin' The Bird (1947)
TTITLE3=Dark Shadows (1947)
TTITLE4=East Of The Sun (West Of The Moon) (1950)
TTITLE5=Little Willie Leaps (1947)
TTITLE6=Mohawk (1950)
TTITLE7=Overtime (1949)
TTITLE8=Salt Peanuts (1945)
TTITLE9=Stella By Starlight (1952)
TTITLE10=The Jumpin' Blues (1941)
TTITLE11=Charlie Parker - What Is This Thing Called Love
EXTD=
EXTT0=
EXTT1=
EXTT2=
EXTT3=
EXTT4=
EXTT5=
EXTT6=
EXTT7=
EXTT8=
EXTT9=
EXTT10=
EXTT11=
PLAYORDER=
